<svg id="Layer_1" data-name="Layer 1" xmlns="http://www.w3.org/2000/svg" viewBox="0 0 800 800"><defs><style>.cls-1{fill:#fbdbe9;stroke:#fff;stroke-miterlimit:10;stroke-width:0.75px;}</style></defs><title>Artboard 1</title><path class="cls-1" d="M399.38,10.82c-214.94.34-388.9,174.86-388.56,389.8s174.86,388.9,389.8,388.56,388.9-174.86,388.56-389.8S614.32,10.48,399.38,10.82Zm5.83,739.76C211.59,753.46,52.29,598.83,49.42,405.21S201.17,52.29,394.79,49.42,747.71,201.17,750.58,394.79,598.83,747.71,405.21,750.58Z"/><path class="cls-1" d="M395.39,89.58C223.94,92.12,87,233.17,89.58,404.61s143.6,308.36,315,305.81,308.36-143.6,305.81-315S566.83,87,395.39,89.58ZM527.06,437l46.12,152.84L423.81,533.49,292.7,624.59l7.44-159.47L173,368.58l154-42.2,52.52-150.76L467.2,309l159.61,3.36Z"/></svg>